<svg width="320" height="221" viewBox="0 0 320 221" fill="none" xmlns="http://www.w3.org/2000/svg">
<g clip-path="url(#clip0_585_2300)">
<path d="M309.46 0H10.5404C4.7191 0 0 4.71317 0 10.5272V210.473C0 216.287 4.7191 221 10.5404 221H309.46C315.281 221 320 216.287 320 210.473V10.5272C320 4.71317 315.281 0 309.46 0Z" fill="#0000FF"/>
<path d="M252.808 139.267C257.545 136.207 257.074 136.453 259.365 135.66C259.456 135.632 259.519 135.512 259.414 135.505C257.833 135.344 257.875 135.688 260.278 132.48C260.383 132.319 260.243 132.27 260.152 132.382C257.067 135.947 252.766 139 252.689 139.063C252.548 139.176 252.689 139.365 252.815 139.267H252.808Z" fill="#FAF5F0"/>
<path d="M263.525 131.533C263.426 131.688 263.216 131.554 263.328 131.344C265.823 126.522 265.745 127.28 264.537 127.231C264.466 127.224 264.368 127.091 264.628 126.992C266.764 125.848 266.083 126.459 270.812 121.28C270.945 121.104 271.163 121.28 271.023 121.455C266.188 127.231 266.87 126.22 263.525 131.533Z" fill="#FAF5F0"/>
<path d="M265.837 123.736C265.759 123.855 265.963 123.954 266.04 123.834C271.634 116.128 269.638 117.883 272.315 118.171C272.547 118.199 272.568 118.058 272.435 117.925C270.559 115.988 270.095 118.479 272.73 109.335C272.786 109.152 272.54 109.11 272.498 109.244C269.8 117.658 270.432 116.311 265.837 123.729V123.736Z" fill="#FAF5F0"/>
<path d="M273.995 115.363C273.945 115.602 273.692 115.56 273.742 115.314C275.014 108.675 275.063 109.503 274.522 107.201C274.472 106.998 274.465 106.745 274.606 106.914C275.527 107.735 275.133 108.247 277.178 103.545C277.234 103.412 277.41 103.503 277.368 103.601C275.709 108.24 275.519 108.893 273.988 115.363H273.995Z" fill="#FAF5F0"/>
<path d="M275.098 102.022C275.063 102.141 275.274 102.204 275.309 102.092C276.532 98.1058 275.984 98.4076 277.677 99.9516C277.804 100.057 277.853 100.022 277.797 99.8884C276.335 96.9127 276.454 98.0356 276.335 89.0033C276.335 88.87 276.075 89.0384 276.075 89.1718C275.885 95.9442 276.328 95.867 275.098 102.029V102.022Z" fill="#FAF5F0"/>
<path d="M249.97 139.042C249.934 139.119 249.717 139.197 249.752 139.119C251.712 133.793 251.846 134.256 246.576 132.866C246.484 132.852 246.674 132.649 246.765 132.663C253.139 132.901 252.295 133.091 260.51 128.459C260.629 128.389 260.658 128.684 260.538 128.754C252.541 134.109 253.23 133.301 249.97 139.042Z" fill="#FAF5F0"/>
<path d="M246.323 130.859C246.196 130.957 246.344 131.182 246.477 131.084C256.013 124.508 254.572 124.62 261.698 126.353C261.915 126.41 261.951 126.164 261.824 126.087C255.935 122.613 256.589 123.56 258.029 113.461C258.058 113.321 257.798 113.384 257.769 113.531C254.65 124.157 255.415 123.069 246.323 130.859Z" fill="#FAF5F0"/>
<path d="M263.785 124.831C263.764 124.964 263.539 124.964 263.56 124.831C264.733 114.858 264.986 115.799 259.625 112.037C259.421 111.896 259.533 111.63 259.779 111.714C266.047 113.616 265.176 114.016 272.329 106.956C272.421 106.857 272.526 107.005 272.435 107.103C265.654 115.497 266.23 114.318 263.778 124.824L263.785 124.831Z" fill="#FAF5F0"/>
<path d="M259.814 109.335C259.716 109.454 259.828 109.714 259.927 109.595C267.003 102.247 266.223 102.492 272.596 104.991C272.674 105.033 272.758 104.738 272.681 104.696C266.926 100.148 267.326 101.18 266.645 89.6281C266.645 89.4596 266.441 89.4947 266.441 89.6702C265.886 101.629 266.279 100.345 259.814 109.342V109.335Z" fill="#FAF5F0"/>
<path d="M273.622 103.32C273.636 103.461 273.475 103.573 273.461 103.426C271.887 92.9828 272.245 93.8741 267.579 88.3649C267.509 88.2947 267.558 88.007 267.628 88.0701C272.547 91.8108 272.055 92.0143 275.4 86.6314C275.442 86.5472 275.519 86.7788 275.477 86.863C272.667 93.6846 272.849 92.5477 273.629 103.32H273.622Z" fill="#FAF5F0"/>
<path d="M244.299 129.793C244.278 129.933 243.976 129.975 243.997 129.842C244.432 119.294 246.098 121.343 237.42 116.367C237.279 116.304 237.469 116.002 237.609 116.065C247.419 119.35 245.585 118.95 256.273 112.563C256.456 112.451 256.603 112.704 256.413 112.823C246.632 120.676 246.758 119.02 244.299 129.8V129.793Z" fill="#FAF5F0"/>
<path d="M236.949 113.048C236.808 113.153 236.984 113.42 237.124 113.314C247.623 106.626 246.365 106.794 256.462 110.479C256.589 110.542 256.736 110.24 256.61 110.184C247.489 104.507 248.136 105.594 246.948 93.2214C246.948 93.046 246.625 93.074 246.632 93.2495C245.824 105.889 246.435 104.64 236.963 113.055L236.949 113.048Z" fill="#FAF5F0"/>
<path d="M258.395 108.703C258.402 108.871 258.142 108.921 258.135 108.752C256.596 96.4073 257.256 97.5092 248.62 91.8105C248.487 91.7403 248.599 91.4104 248.74 91.4806C258.015 95.2493 256.94 95.3967 265 88.5541C265.098 88.4558 265.246 88.7155 265.148 88.8137C258.156 97.3898 258.57 96.1687 258.395 108.703Z" fill="#FAF5F0"/>
<path d="M235.192 112.275C235.192 112.444 234.855 112.444 234.862 112.275C234.173 99.9657 234.974 101.039 226.05 95.6706C225.895 95.5934 226.05 95.2847 226.204 95.3618C235.937 99.0814 234.595 99.1165 244.727 92.0774C244.854 91.9721 245.058 92.2318 244.924 92.337C236.119 101.039 236.632 99.9868 235.185 112.275H235.192Z" fill="#FAF5F0"/>
<path d="M235.48 44.1369C235.227 44.0597 235.41 43.8632 235.537 43.9053C243.196 46.3405 241.776 46.1721 245.627 45.8563C245.726 45.8423 245.88 45.9475 245.761 45.9896C243.287 47.0143 243.716 46.4037 246.878 48.5091C246.962 48.5653 246.899 48.7478 246.766 48.6776C242.086 46.4318 241.861 46.3967 235.48 44.1439V44.1369Z" fill="#FAF5F0"/>
<path d="M249 47.5612C248.881 47.4419 248.733 47.5121 248.817 47.6033C252.436 50.8106 252.12 50.3755 251.214 50.8387C251.108 50.8878 251.171 51.0211 251.396 51.0422C253.61 51.3159 252.9 51.0773 258.571 54.1021C258.824 54.2214 258.824 53.9898 258.592 53.8565C252.633 50.4035 253.532 51.0492 249.007 47.5682L249 47.5612Z" fill="#FAF5F0"/>
<path d="M253.511 53.4356C253.399 53.3514 253.546 53.197 253.666 53.2812C259.758 57.5552 258.88 57.3236 261.325 56.3692C261.388 56.3341 261.543 56.5025 261.522 56.5587C260.531 58.9448 259.836 57.7868 264.501 64.1733C264.586 64.2856 264.438 64.3768 264.354 64.2645C259.583 58.8676 259.33 57.8079 253.525 53.4356H253.511Z" fill="#FAF5F0"/>
<path d="M264.073 58.8536C263.925 58.615 263.672 58.7483 263.834 59.008C267.221 64.7277 266.883 63.8926 267.136 66.1524C267.158 66.377 267.418 66.4472 267.488 66.2577C268.001 65.0435 268.542 66.0541 271.036 68.9175C271.233 69.114 271.451 69.0088 271.198 68.707C267.867 64.5944 267.389 64.047 264.073 58.8536Z" fill="#FAF5F0"/>
<path d="M269.814 70.3984C269.722 70.251 269.898 70.1668 269.989 70.3072C272.097 73.1986 272.034 73.1916 272.66 71.7389C272.667 71.6967 272.8 71.6266 272.765 71.9564C272.639 75.29 272.674 75.2128 274.606 81.3115C274.655 81.4379 274.402 81.5151 274.353 81.3887C272.294 75.676 272.069 74.3426 269.814 70.3984Z" fill="#FAF5F0"/>
<path d="M232.704 43.9051C232.641 43.842 232.416 43.849 232.472 43.9051C236.548 48.6634 236.506 48.1441 231.432 51.5759C231.348 51.618 231.601 51.7443 231.685 51.7022C238.368 49.0494 237.419 49.1687 247.84 50.9022C247.974 50.9302 247.89 50.6355 247.763 50.6074C237.293 48.0388 238.312 48.6073 232.711 43.9051H232.704Z" fill="#FAF5F0"/>
<path d="M232.571 53.1621C232.416 53.113 232.437 52.9164 232.592 52.9656C243.786 55.8921 242.69 55.9483 248.789 51.962C248.852 51.9058 249.098 52.0743 249.035 52.1304C244.692 57.3238 244.699 56.5167 249.506 65.4227C249.583 65.542 249.316 65.5701 249.239 65.4508C242.676 56.615 243.765 57.3729 232.571 53.1621Z" fill="#FAF5F0"/>
<path d="M251.009 52.9373C250.939 52.818 250.721 52.7899 250.792 52.9092C255.31 61.8011 255.233 60.9449 251.487 66.2155C251.417 66.2857 251.677 66.5313 251.74 66.4611C256.975 62.6222 256.111 62.5731 265.253 66.784C265.373 66.8471 265.337 66.6366 265.218 66.5734C255.963 60.994 256.905 61.9064 251.009 52.9373Z" fill="#FAF5F0"/>
<path d="M252.591 68.6788C252.457 68.6016 252.478 68.3209 252.612 68.3981C261.789 72.9247 260.974 72.9528 266.104 68.5033C266.265 68.3209 266.455 68.5384 266.286 68.749C262.442 74.9109 262.464 73.816 265.801 84.8625C265.858 85.0239 265.654 85.052 265.598 84.8906C260.96 73.8722 261.768 74.9389 252.598 68.6718L252.591 68.6788Z" fill="#FAF5F0"/>
<path d="M267.636 69.7248C267.6 69.5844 267.425 69.5984 267.46 69.7318C269.582 80.0414 269.596 79.0308 267.109 85.7331C267.066 85.8173 267.214 86.0769 267.256 85.9927C270.601 80.8695 270.06 80.8414 275.07 84.7997C275.14 84.8628 275.133 84.6242 275.07 84.561C270.067 79.0799 270.629 80.0835 267.65 69.7178L267.636 69.7248Z" fill="#FAF5F0"/>
<path d="M231.369 54.1235C231.306 53.9971 231.004 54.0603 231.067 54.1796C235.079 63.8576 235.276 62.8048 228.825 70.3704C228.713 70.4756 229.001 70.6932 229.106 70.5879C237.194 64.2155 235.944 64.4962 248.157 66.8543C248.325 66.8964 248.353 66.6297 248.192 66.5876C236.323 62.5662 237.356 63.3312 231.369 54.1235Z" fill="#FAF5F0"/>
<path d="M229.852 72.918C229.683 72.8689 229.76 72.5601 229.922 72.6092C242.064 75.3182 240.835 75.5919 249.049 68.7352C249.148 68.637 249.386 68.8616 249.288 68.9668C242.669 77.3605 242.901 76.1253 246.035 88.1192C246.091 88.2806 245.782 88.3649 245.725 88.2034C240.631 76.6376 241.629 77.5991 229.852 72.925V72.918Z" fill="#FAF5F0"/>
<path d="M251.473 69.7456C251.424 69.5842 251.157 69.6263 251.206 69.7877C254.01 81.8729 254.249 80.6237 248.093 88.8699C247.988 88.9822 248.213 89.2559 248.318 89.1436C255.739 82.4905 254.685 82.7151 264.614 86.4276C264.74 86.4908 264.789 86.189 264.663 86.1329C255.141 80.4342 255.942 81.4448 251.473 69.7526V69.7456Z" fill="#FAF5F0"/>
<path d="M228.467 74.2373C228.404 74.0829 228.095 74.1882 228.158 74.3426C231.728 86.112 232.114 84.8347 225.565 92.9055C225.446 93.0248 225.699 93.2704 225.811 93.1441C233.681 86.3436 232.409 86.7717 244.348 89.9298C244.503 89.986 244.601 89.6702 244.446 89.614C233.182 84.4417 234.032 85.2558 228.467 74.2303V74.2373Z" fill="#FAF5F0"/>
<path d="M245.353 140.264C245.444 140.278 245.262 140.418 245.17 140.404C240.441 140.039 241.249 139.969 234.953 142.503C234.827 142.559 234.602 142.362 234.728 142.306C240.68 139.358 240.048 140.187 242.345 136.481C242.451 136.285 242.655 136.362 242.62 136.439C241.432 139.955 241.383 139.309 245.36 140.264H245.353Z" fill="#FAF5F0"/>
<path d="M230.006 140.818C229.985 140.909 230.301 140.902 230.322 140.811C231.77 136.818 232.177 136.684 238.249 134.326C238.41 134.277 238.298 134.095 238.136 134.151C231.615 135.919 231.517 136.467 225.614 134.607C225.481 134.551 225.27 134.733 225.403 134.789C230.526 137.267 230.231 136.853 230.006 140.825V140.818Z" fill="#FAF5F0"/>
<path d="M240.553 130.382C240.68 130.445 240.476 130.67 240.35 130.606C232.248 127.483 233.288 127.49 223.977 130.354C223.815 130.417 223.689 130.178 223.85 130.115C232.606 126.045 231.924 126.445 234.018 118.837C234.046 118.69 234.398 118.697 234.37 118.844C233.857 126.466 233.477 126.059 240.553 130.382Z" fill="#FAF5F0"/>
<path d="M219.466 127.427C219.445 127.568 219.775 127.617 219.796 127.476C221.701 119.7 221.054 120.43 229.465 116.795C229.627 116.739 229.5 116.451 229.339 116.507C220.281 118.802 221.349 118.949 213.268 114.233C213.128 114.135 212.924 114.381 213.064 114.479C220.162 120.311 219.74 119.427 219.466 127.434V127.427Z" fill="#FAF5F0"/>
<path d="M231.988 112.746C232.128 112.837 231.938 113.103 231.798 113.012C221.398 107.65 222.881 107.994 211.427 110.268C211.265 110.317 211.16 110.001 211.321 109.959C222.164 105.77 221.433 106.808 223.633 97.2636C223.654 97.0952 223.998 97.1443 223.977 97.3127C223.492 107.096 222.691 105.713 231.988 112.746Z" fill="#FAF5F0"/>
<path d="M212.228 126.845C212.361 126.95 212.186 127.14 212.045 127.041C206.698 123.539 207.407 123.736 201.723 124.234C201.582 124.262 201.448 123.981 201.589 123.96C206.838 122.515 206.431 122.971 207.435 118.149C207.449 118.009 207.78 118.093 207.766 118.241C207.752 123.343 207.442 122.69 212.228 126.852V126.845Z" fill="#FAF5F0"/>
<path d="M172.547 84.3922C174.184 82.3289 173.861 82.9535 175.681 76.9811C175.723 76.8267 175.955 76.918 175.913 77.0724C174.578 82.4061 174.578 82.7711 174.114 87.5504C174.114 87.6697 173.875 87.6767 173.875 87.5574C173.84 83.2904 174.008 83.5641 172.561 84.5396C172.491 84.6028 172.434 84.4835 172.54 84.3852L172.547 84.3922Z" fill="#FAF5F0"/>
<path d="M178.133 74.7776C178.119 74.6864 177.986 74.8759 178 74.9671C178.548 80.3149 178.604 79.4166 175.927 86.7435C175.878 86.8698 176.082 87.1014 176.138 86.9751C179.286 80.0131 178.801 80.5395 182.954 77.6761C183.031 77.634 183.066 77.3603 182.989 77.4024C179.019 78.9885 179.321 79.2341 178.133 74.7776Z" fill="#FAF5F0"/>
<path d="M177.641 90.7437C177.55 90.7648 177.55 90.456 177.641 90.4279C181.998 88.6102 181.928 88.0909 184.338 81.157C184.387 80.9956 184.563 81.1008 184.514 81.2552C182.778 88.6523 182.384 88.8558 184.661 95.3967C184.717 95.5301 184.549 95.7476 184.493 95.6143C181.562 89.9787 182.019 90.2875 177.641 90.7367V90.7437Z" fill="#FAF5F0"/>
<path d="M187.795 79.1709C187.732 79.0446 187.514 79.2622 187.577 79.3885C191.147 87.8593 191.105 86.7645 188.371 96.8074C188.315 96.9688 188.554 97.0881 188.61 96.9267C192.637 87.4242 191.85 88.1681 199.881 85.5995C200.029 85.5714 200.008 85.2135 199.86 85.2486C191.765 86.1399 192.595 86.5049 187.788 79.178L187.795 79.1709Z" fill="#FAF5F0"/>
<path d="M191.358 100.569C191.217 100.597 191.161 100.267 191.302 100.239C199.242 97.9585 198.891 97.5304 202.341 88.6806C202.39 88.5192 202.685 88.6315 202.636 88.7929C200.584 98.2603 200.022 98.2954 205.173 106.486C205.278 106.626 205.039 106.829 204.941 106.696C198.673 99.5657 199.593 99.9657 191.358 100.569Z" fill="#FAF5F0"/>
<path d="M205.883 87.7192C205.791 87.5788 205.524 87.7753 205.623 87.9157C211.392 98.2323 210.822 96.3655 208.925 108.051C208.883 108.212 209.199 108.303 209.241 108.142C213.099 97.0041 212.08 97.7831 221.665 95.2005C221.834 95.1724 221.77 94.8285 221.602 94.8566C211.715 95.7198 213.317 96.8497 205.89 87.7192H205.883Z" fill="#FAF5F0"/>
<path d="M177.775 98.5268C177.711 98.3864 177.599 98.5899 177.662 98.7303C179.405 102.899 179.292 102.26 179.075 106.787C179.061 106.941 179.229 107.096 179.25 106.941C179.904 102.766 179.686 103.138 182.04 102.274C182.131 102.26 182.068 101.895 181.977 101.917C179.482 101.938 179.805 102.211 177.782 98.5268H177.775Z" fill="#FAF5F0"/>
<path d="M192.356 107.58C192.251 107.447 192.068 107.636 192.173 107.77C195.947 113.138 195.722 112.423 195.42 118.297C195.399 118.437 195.68 118.563 195.701 118.423C196.98 112.956 196.537 113.391 201.428 112.163C201.568 112.142 201.47 111.812 201.329 111.833C196.115 112.051 196.79 112.345 192.363 107.58H192.356Z" fill="#FAF5F0"/>
<path d="M184.465 59.9833C183.593 62.9941 184.043 62.2783 179.946 68.3489C179.827 68.5524 180.087 68.6717 180.185 68.5384C183.881 63.5275 184.155 63.0362 188.013 59.5693C188.154 59.45 188.013 59.2675 187.866 59.3938C184.612 62.1449 184.985 61.5414 184.718 59.8289C184.704 59.7588 184.514 59.7166 184.465 59.9763V59.9833Z" fill="#FAF5F0"/>
<path d="M178.653 71.3456C178.576 71.3877 178.653 71.1701 178.724 71.128C184.907 67.24 184.05 68.033 189.714 58.9516C189.889 58.6639 190.1 58.8463 190.03 58.9656C185.16 68.2436 184.781 66.7628 185.209 73.8159C185.223 73.9072 185.027 74.1037 185.013 74.0124C183.347 68.2366 184.408 68.9103 178.653 71.3456Z" fill="#FAF5F0"/>
<path d="M191.576 58.166C191.52 58.0467 191.26 58.1309 191.337 58.3555C193.213 65.2894 193.508 64.2366 187.254 73.9076C187.156 74.0479 187.339 74.1322 187.437 73.9918C194.907 64.6998 193.846 65.5069 204.259 61.9698C204.407 61.9277 204.47 61.661 204.323 61.6961C194.387 63.5629 195.153 63.8085 191.583 58.166H191.576Z" fill="#FAF5F0"/>
<path d="M188.301 76.0901C188.161 76.1112 188.203 75.8164 188.336 75.7884C198.933 72.9109 197.513 73.2899 205.011 63.2891C205.103 63.1488 205.348 63.261 205.25 63.4014C199.228 74.2303 198.975 72.5881 202.517 82.1678C202.587 82.3082 202.292 82.5047 202.221 82.3713C197.036 73.9777 198.729 75.2269 188.294 76.0901H188.301Z" fill="#FAF5F0"/>
<path d="M207.604 62.98C207.541 62.8607 207.246 63.0151 207.316 63.1344C211.286 72.9808 211.406 71.7316 205.067 82.3851C204.969 82.5254 205.236 82.6868 205.341 82.5465C213.436 72.8404 212.214 73.4931 224.778 72.2088C224.954 72.2088 224.968 71.886 224.799 71.893C212.432 71.1912 213.535 71.7877 207.611 62.98H207.604Z" fill="#FAF5F0"/>
<path d="M206.916 84.9608C206.747 84.9748 206.747 84.645 206.916 84.6309C219.121 82.7431 217.337 82.9255 225.741 73.8511C225.846 73.7178 226.113 73.9073 226.008 74.0406C219.311 84.3783 219.304 83.0378 223.338 92.5894C223.415 92.7368 223.113 92.9053 223.028 92.7509C217.379 84.0625 219.22 85.1924 206.923 84.9608H206.916Z" fill="#FAF5F0"/>
<path d="M199.685 47.8353C199.587 47.723 199.439 47.8002 199.453 47.9546C199.727 50.5302 201.343 48.7336 193.761 54.4323C193.649 54.5095 193.832 54.7692 193.944 54.692C202.664 49.1196 198.975 50.8811 208.525 46.8738C208.651 46.8317 208.588 46.6071 208.42 46.6633C199.425 49.5617 201.575 49.5758 199.678 47.8423L199.685 47.8353Z" fill="#FAF5F0"/>
<path d="M192.855 56.7479C192.721 56.776 192.819 56.5795 192.953 56.5514C203.282 53.7021 202.186 54.2776 210.345 47.2735C210.443 47.1823 210.598 47.2454 210.499 47.3366C203.669 54.6425 203.985 53.8424 205.995 59.8991C206.037 59.9833 205.728 60.1517 205.679 60.0675C201.849 54.9794 202.678 55.1689 192.847 56.7479H192.855Z" fill="#FAF5F0"/>
<path d="M212.685 46.9788C212.572 46.8385 212.319 46.9086 212.39 47.0771C215.018 53.2249 215.25 52.4459 208.103 59.6816C207.991 59.7798 208.251 59.8851 208.363 59.7798C217.161 53.0846 215.896 53.5197 227.786 52.5021C227.954 52.5021 227.99 52.2915 227.821 52.2985C216.304 52.088 217.337 52.4319 212.685 46.9718V46.9788Z" fill="#FAF5F0"/>
<path d="M208.981 61.4152C208.813 61.4152 208.855 61.1485 209.024 61.1555C221.51 60.5169 220.302 60.966 228.657 53.7444C228.755 53.6461 229.022 53.7795 228.924 53.8777C222.333 62.0889 222.445 61.0222 226.471 70.0404C226.549 70.1738 226.218 70.3001 226.141 70.1668C220.21 61.8503 221.321 62.4609 208.981 61.4082V61.4152Z" fill="#FAF5F0"/>
<path d="M203.753 45.9966C203.641 46.0177 203.592 45.8352 203.711 45.8071C209.192 44.4877 209.768 44.3333 214.231 42.7823C214.371 42.7332 214.392 42.9017 214.301 42.9367C210.106 44.6281 210.492 44.7123 211.307 45.4282C211.427 45.5194 211.343 45.6598 211.068 45.5966C209.178 45.1966 209.375 44.9088 203.753 46.0037V45.9966Z" fill="#FAF5F0"/>
<path d="M217.751 42.1505C217.632 42.0873 217.568 42.1505 217.632 42.2417C218.552 43.6875 219.065 43.0629 215.242 44.3893C215.151 44.4173 215.186 44.5998 215.278 44.5717C219.444 43.6032 219.831 43.5541 227.575 43.2383C227.8 43.2173 227.757 42.9365 227.533 42.9646C221.56 43.0418 220.239 43.2945 218.643 42.5997C218.201 42.4032 217.856 42.1996 217.751 42.1575V42.1505Z" fill="#FAF5F0"/>
<path d="M213.921 46.1719C213.781 46.1649 213.886 45.9965 214.027 46.0035C224.778 46.3614 223.654 46.586 230.407 43.5822C230.491 43.5401 230.716 43.6033 230.638 43.6454C225.326 47.1124 225.523 46.6211 229.345 51.2811C229.416 51.3443 229.121 51.4074 229.057 51.3373C223.471 46.993 224.37 47.3089 213.928 46.1649L213.921 46.1719Z" fill="#FAF5F0"/>
<path d="M195.623 50.425C195.708 50.3478 195.56 50.2075 195.476 50.2847C191.07 54.2078 190.894 54.3692 186.994 57.1203C186.868 57.2045 187.001 57.373 187.086 57.3168C190.873 54.8464 190.719 55.2044 190.838 56.2851C190.838 56.4325 191.007 56.4466 191.112 56.1869C191.864 54.4043 191.513 54.4043 195.623 50.425Z" fill="#FAF5F0"/>
<path d="M138.937 164.343H135.859L131.77 169.613L127.659 164.343H124.539L129.697 170.778C129.9 171.059 129.9 171.305 129.697 171.585L124.279 178.421H127.357L131.77 172.849L136.098 178.421H139.176L133.779 171.585C133.575 171.305 133.575 171.059 133.779 170.778L138.937 164.343Z" fill="#FAF5F0"/>
<path d="M114.329 164.448C114.188 164.209 114.026 164.104 113.844 164.104C113.661 164.104 113.499 164.202 113.359 164.448L105.404 178.428H108.503L109.592 176.4C109.754 176.119 109.972 175.979 110.295 175.979H117.364C117.687 175.979 117.905 176.119 118.067 176.4L119.177 178.428H122.255L114.321 164.448M111.061 173.663L113.457 169.136C113.598 168.876 113.64 168.736 113.823 168.736C114.005 168.736 114.047 168.876 114.167 169.115L116.605 173.663H111.068H111.061Z" fill="#FAF5F0"/>
<path d="M158.62 164.448C158.479 164.209 158.317 164.104 158.135 164.104C157.952 164.104 157.79 164.202 157.65 164.448L149.695 178.428H152.794L153.883 176.4C154.045 176.119 154.263 175.979 154.586 175.979H161.655C161.978 175.979 162.196 176.119 162.358 176.4L163.468 178.428H166.546L158.613 164.448M155.352 173.663L157.748 169.136C157.889 168.876 157.931 168.736 158.114 168.736C158.296 168.736 158.338 168.876 158.458 169.115L160.896 173.663H155.359H155.352Z" fill="#FAF5F0"/>
<path d="M143.519 164.343H146.182V178.421H143.519V164.343Z" fill="#FAF5F0"/>
<path d="M177.789 164.342V178.421H187.037V177.08H179.265V171.908H186.439V170.567H179.265V165.683H186.994V164.342H177.789Z" fill="#FAF5F0"/>
<path d="M201.962 164.342V176.329L194.478 164.342H192.714V178.421H194.176V166.441L201.66 178.421H203.423V164.342H201.962Z" fill="#FAF5F0"/>
<path d="M209.727 164.342V178.421H218.974V177.08H211.202V171.908H218.377V170.567H211.202V165.683H218.932V164.342H209.727Z" fill="#FAF5F0"/>
<path d="M246.681 171.248V172.554H251.46C251.438 173.361 251.263 174.105 250.925 174.785C250.525 175.592 249.942 176.231 249.19 176.687C248.438 177.143 247.581 177.375 246.618 177.375C245.557 177.375 244.601 177.143 243.758 176.687C242.915 176.231 242.254 175.543 241.769 174.638C241.292 173.733 241.053 172.652 241.053 171.389C241.053 170.125 241.313 169.045 241.826 168.146C242.346 167.248 243.034 166.567 243.906 166.097C244.777 165.634 245.711 165.395 246.723 165.395C247.827 165.395 248.817 165.641 249.696 166.125C250.581 166.616 251.235 167.311 251.67 168.209L252.844 167.332C252.254 166.293 251.403 165.479 250.293 164.911C249.183 164.335 247.988 164.055 246.723 164.055C245.458 164.055 244.271 164.349 243.175 164.946C242.072 165.543 241.193 166.385 240.54 167.494C239.879 168.595 239.549 169.894 239.549 171.389C239.549 172.883 239.851 174.161 240.448 175.27C241.053 176.378 241.868 177.228 242.894 177.824C243.927 178.421 245.044 178.715 246.26 178.715C247.307 178.715 248.213 178.533 248.965 178.161C249.717 177.789 250.321 177.326 250.778 176.771C251.024 176.47 251.242 176.154 251.438 175.817V178.428H252.893V171.248H246.66H246.681Z" fill="#FAF5F0"/>
<path d="M259.006 164.342H260.461V178.421H259.006V164.342Z" fill="#FAF5F0"/>
<path d="M233.843 178.428H235.586L231.166 172.139C231.883 172.09 232.522 171.929 233.07 171.648C233.745 171.311 234.258 170.848 234.602 170.259C234.946 169.669 235.122 169.009 235.122 168.265C235.122 167.521 234.946 166.841 234.602 166.244C234.258 165.648 233.745 165.184 233.07 164.848C232.389 164.511 231.587 164.342 230.653 164.342H224.652V178.421H226.127V172.153H229.592L233.836 178.421M226.127 165.683H230.639C231.587 165.683 232.325 165.914 232.852 166.385C233.386 166.848 233.646 167.479 233.646 168.272C233.646 168.799 233.527 169.255 233.288 169.641C233.049 170.034 232.705 170.329 232.241 170.539C231.777 170.75 231.236 170.855 230.611 170.855H226.12V165.683H226.127Z" fill="#FAF5F0"/>
<path d="M276.209 178.428H277.818L271.985 164.35H270.432L264.565 178.428H266.16L267.861 174.273H274.536L276.216 178.428H276.209ZM268.381 172.989L271.212 166.048L274.016 172.989H268.381Z" fill="#FAF5F0"/>
</g>
<defs>
<clipPath id="clip0_585_2300">
<path d="M0 16C0 7.16344 7.16344 0 16 0H304C312.837 0 320 7.16344 320 16V205C320 213.837 312.837 221 304 221H16C7.16345 221 0 213.837 0 205V16Z" fill="white"/>
</clipPath>
</defs>
</svg>
